HIERARCHY
ROOT joint_Root
{
	OFFSET 0.0 0.0 0.0
	CHANNELS 6 Xposition Yposition Zposition Zrotation Xrotation Yrotation 
	JOINT Hips
	{
		OFFSET -0.726466 93.3139 -2.00062
		CHANNELS 6 Xposition Yposition Zposition Zrotation Xrotation Yrotation 
		JOINT Spine
		{
			OFFSET 15.7357 0.0 0.0
			CHANNELS 6 Xposition Yposition Zposition Zrotation Xrotation Yrotation 
			JOINT Chest
			{
				OFFSET 8.98455 -0.406207 0.0
				CHANNELS 6 Xposition Yposition Zposition Zrotation Xrotation Yrotation 
				JOINT Neck
				{
					OFFSET 16.3773 0.0 0.0
					CHANNELS 6 Xposition Yposition Zposition Zrotation Xrotation Yrotation 
					JOINT Head
					{
						OFFSET 6.45672 0.0 0.0
						CHANNELS 6 Xposition Yposition Zposition Zrotation Xrotation Yrotation 
						End Site
						{
							OFFSET 0.0 0.0 0.0
						}
					}
				}
				JOINT Shoulder_L
				{
					OFFSET 12.9942 -0.242716 4.98039
					CHANNELS 6 Xposition Yposition Zposition Zrotation Xrotation Yrotation 
					JOINT UpperArm_L
					{
						OFFSET 5.34809 0.0 0.0
						CHANNELS 6 Xposition Yposition Zposition Zrotation Xrotation Yrotation 
						JOINT LowerArm_L
						{
							OFFSET 24.3286 1.87007e-05 0.0
							CHANNELS 6 Xposition Yposition Zposition Zrotation Xrotation Yrotation 
							JOINT Hand_L
							{
								OFFSET 22.2916 0.0 0.0
								CHANNELS 6 Xposition Yposition Zposition Zrotation Xrotation Yrotation 
								End Site
								{
									OFFSET 0.0 0.0 0.0
								}
							}
						}
					}
				}
				JOINT Shoulder_R
				{
					OFFSET 12.9945 -0.242716 -4.98039
					CHANNELS 6 Xposition Yposition Zposition Zrotation Xrotation Yrotation 
					JOINT UpperArm_R
					{
						OFFSET -5.34813 0.0 0.0
						CHANNELS 6 Xposition Yposition Zposition Zrotation Xrotation Yrotation 
						JOINT LowerArm_R
						{
							OFFSET -24.3289 0.000322201 0.0
							CHANNELS 6 Xposition Yposition Zposition Zrotation Xrotation Yrotation 
							JOINT Hand_R
							{
								OFFSET -22.2915 -0.000108084 0.0
								CHANNELS 6 Xposition Yposition Zposition Zrotation Xrotation Yrotation 
								End Site
								{
									OFFSET 0.0 0.0 0.0
								}
							}
						}
					}
				}
			}
		}
		JOINT UpperLeg_L
		{
			OFFSET -2.19248 -6.46944 0.0
			CHANNELS 6 Xposition Yposition Zposition Zrotation Xrotation Yrotation 
			JOINT LowerLeg_L
			{
				OFFSET 39.0811 0.0 -1.23785e-05
				CHANNELS 6 Xposition Yposition Zposition Zrotation Xrotation Yrotation 
				JOINT Foot_L
				{
					OFFSET 40.9854 0.0 -1.26872e-05
					CHANNELS 6 Xposition Yposition Zposition Zrotation Xrotation Yrotation 
					JOINT Toes_L
					{
						OFFSET 11.7543 0.0 0.0
						CHANNELS 6 Xposition Yposition Zposition Zrotation Xrotation Yrotation 
						End Site
						{
							OFFSET 0.0 0.0 0.0
						}
					}
				}
			}
		}
		JOINT UpperLeg_R
		{
			OFFSET -2.19251 6.46944 0.0
			CHANNELS 6 Xposition Yposition Zposition Zrotation Xrotation Yrotation 
			JOINT LowerLeg_R
			{
				OFFSET -39.0811 -0.00228153 -0.0401928
				CHANNELS 6 Xposition Yposition Zposition Zrotation Xrotation Yrotation 
				JOINT Foot_R
				{
					OFFSET -40.9854 0.0 0.0
					CHANNELS 6 Xposition Yposition Zposition Zrotation Xrotation Yrotation 
					JOINT Toes_R
					{
						OFFSET -11.7543 0.0 0.0
						CHANNELS 6 Xposition Yposition Zposition Zrotation Xrotation Yrotation 
						End Site
						{
							OFFSET 0.0 0.0 0.0
						}
					}
				}
			}
		}
	}
}
MOTION
Frames:	4
Frame Time:	0.0333333
0.000000 0.000000 0.000000 0.000000 0.000000 -0.000000 -1.944720 92.015300 -1.794870 87.309200 1.297710 3.340810 15.735700 0.000005 -0.000001 86.640700 85.323600 -85.965500 8.984550 -0.406207 -0.000000 1.574560 -0.584233 1.357230 16.377300 -0.000001 -0.000001 4.842170 -2.420110 0.322370 6.456720 -0.000001 -0.000000 0.537750 -1.135120 4.903140 12.994200 -0.242716 4.980390 -89.622400 -1.124770 -71.442300 5.348090 -0.000007 -0.000001 -65.054100 44.121000 -16.203300 24.328600 0.000019 0.000005 4.203970 8.155600 -27.390200 22.291600 -0.000001 0.000005 4.403420 5.631870 -13.480600 12.994500 -0.242716 -4.980390 87.391200 6.862320 -69.126200 -5.348130 -0.000001 -0.000004 -65.129500 31.462400 -13.413700 -24.328900 0.000322 -0.000009 -0.122621 -0.319137 -20.855900 -22.291500 -0.000108 -0.000004 6.656410 5.597370 -11.186400 -2.192480 -6.469440 -0.000000 -167.125000 -14.964900 -3.054400 39.081100 -0.000007 -0.000012 -0.185054 0.492600 20.589900 40.985400 -0.000006 -0.000013 -7.049080 5.491040 -62.160500 11.754300 -0.000000 0.000003 -0.000133 -0.001315 -16.627700 -2.192510 6.469440 -0.000001 175.204000 21.798400 179.174000 -39.081100 -0.002282 -0.040193 -0.052893 0.156814 19.721800 -40.985400 0.000008 0.000006 -3.061990 2.371180 -63.541200 -11.754300 -0.000006 -0.000006 -0.004776 -0.059280 -18.984900
0.000000 0.000000 0.000000 0.000000 0.000000 -0.000000 -1.941070 92.011100 -1.760850 87.317100 1.351170 3.362260 15.735700 0.000005 -0.000001 86.360600 85.299200 -85.677900 8.984550 -0.406207 -0.000000 1.620780 -0.633060 1.373020 16.377300 -0.000001 -0.000001 4.770200 -2.350710 0.268657 6.456720 -0.000001 -0.000000 0.270099 -1.075360 4.839620 12.994200 -0.242716 4.980390 -89.615300 -1.144510 -71.417500 5.348090 -0.000007 -0.000001 -62.581400 47.215600 -17.506000 24.328600 0.000019 0.000005 4.727760 8.524700 -29.157000 22.291600 -0.000001 0.000005 4.034520 5.641200 -14.224000 12.994500 -0.242716 -4.980390 87.395000 6.837960 -69.086700 -5.348130 -0.000001 -0.000004 -64.173000 31.210600 -13.675100 -24.328900 0.000322 -0.000009 -0.044891 -0.111089 -21.568900 -22.291500 -0.000108 -0.000004 6.715080 5.596670 -11.145700 -2.192480 -6.469440 -0.000000 -167.124000 -14.936100 -3.026490 39.081100 -0.000007 -0.000012 -0.185312 0.493021 20.600000 40.985400 -0.000006 -0.000013 -7.044240 5.537450 -62.183400 11.754300 -0.000000 0.000003 -0.000134 -0.001322 -16.628000 -2.192510 6.469440 -0.000001 175.176000 21.835400 179.232000 -39.081100 -0.002282 -0.040193 -0.051970 0.154233 19.722400 -40.985400 0.000008 0.000006 -3.136680 2.298610 -63.563500 -11.754300 -0.000006 -0.000006 -0.004799 -0.059504 -18.994000
0.000000 0.000000 0.000000 0.000000 0.000000 -0.000000 -1.928340 92.011600 -1.714460 87.324100 1.421700 3.421840 15.735700 0.000005 -0.000001 86.013200 85.265300 -85.325600 8.984550 -0.406207 -0.000000 1.685130 -0.694475 1.384200 16.377300 -0.000001 -0.000001 4.683690 -2.305450 0.280583 6.456720 -0.000001 -0.000000 -0.020112 -1.020440 4.670450 12.994200 -0.242716 4.980390 -89.594600 -1.204590 -71.396900 5.348090 -0.000007 -0.000001 -59.888100 50.003400 -18.799700 24.328600 0.000019 0.000005 5.105110 8.416300 -31.399600 22.291600 -0.000001 0.000005 3.910720 5.650750 -15.092200 12.994500 -0.242716 -4.980390 87.421000 6.745860 -69.021000 -5.348130 -0.000001 -0.000004 -63.030800 30.599900 -14.061400 -24.328900 0.000322 -0.000009 0.067555 0.167635 -22.263800 -22.291500 -0.000108 -0.000004 6.758240 5.593600 -10.966900 -2.192480 -6.469440 -0.000000 -167.113000 -14.918000 -2.929740 39.081100 -0.000007 -0.000012 -0.184641 0.491956 20.572300 40.985400 -0.000006 -0.000013 -7.032190 5.613170 -62.197500 11.754300 -0.000000 0.000003 -0.000132 -0.001304 -16.627300 -2.192510 6.469440 -0.000001 175.139000 21.874600 179.338000 -39.081100 -0.002282 -0.040193 -0.048670 0.145002 19.725800 -40.985400 0.000008 0.000006 -3.026250 2.262690 -63.610000 -11.754300 -0.000006 -0.000006 -0.004975 -0.061227 -19.064300
0.000000 0.000000 0.000000 0.000000 0.000000 -0.000000 -1.918390 92.004600 -1.682780 87.333600 1.481890 3.468110 15.735700 0.000005 -0.000001 85.677500 85.240500 -85.002400 8.984550 -0.406207 -0.000000 1.730770 -0.752572 1.360320 16.377300 -0.000001 -0.000001 4.587070 -2.282360 0.225122 6.456720 -0.000001 -0.000000 -0.283921 -1.005930 4.645930 12.994200 -0.242716 4.980390 -89.569800 -1.277440 -71.387200 5.348090 -0.000007 -0.000001 -56.894000 52.407500 -20.005500 24.328600 0.000019 0.000005 5.173820 7.651880 -34.218500 22.291600 -0.000001 0.000005 3.923810 5.659670 -16.022300 12.994500 -0.242716 -4.980390 87.444700 6.650380 -68.925400 -5.348130 -0.000001 -0.000004 -61.577500 29.877900 -14.644100 -24.328900 0.000322 -0.000009 0.090728 0.218451 -22.777200 -22.291500 -0.000108 -0.000004 7.035700 5.595520 -11.079500 -2.192480 -6.469440 -0.000000 -167.121000 -14.815100 -2.897680 39.081100 -0.000007 -0.000012 -0.185983 0.494499 20.611700 40.985400 -0.000006 -0.000013 -7.037110 5.570320 -62.240800 11.754300 -0.000000 0.000003 -0.000132 -0.001306 -16.627300 -2.192510 6.469440 -0.000001 175.094000 21.910800 179.396000 -39.081100 -0.002282 -0.040193 -0.047966 0.142569 19.785800 -40.985400 0.000008 0.000006 -2.930120 2.256720 -63.676600 -11.754300 -0.000006 -0.000006 -0.004910 -0.060592 -19.038400
